<svg xmlns="http://www.w3.org/2000/svg" viewBox="0 0 512 512" role="img" aria-labelledby="title desc">
  <title id="title">Redemption Logo</title>
  <desc id="desc">Letter R with a crown of thorns inspired circular mark.</desc>
  <rect width="512" height="512" fill="#ffffff"/>
  <g fill="none" stroke="#12351d" stroke-linecap="round" stroke-linejoin="round">
    <path d="M92 334C57 242 101 126 203 83c82-34 179-15 231 48" stroke-width="18"/>
    <path d="M95 334c33-18 48-59 48-59" stroke-width="15"/>
    <path d="M126 101c72-45 164-47 234-8" stroke-width="9"/>
    <path d="M376 78c36 14 62 36 78 64" stroke-width="9"/>
    <path d="M138 93l34 4-25 18m74-37 31 16-31 9m81-13 29 20-34 4m83 10 23 25-31-2" stroke-width="7"/>
  </g>
  <g fill="#17231a">
    <path d="M182 178h76c59 0 95 30 95 77 0 34-19 58-52 70l65 94h-63l-58-84h-11v84h-52V178Zm52 45v70h23c27 0 43-13 43-36 0-22-16-34-43-34h-23Z"/>
    <path d="M162 178h42v241h-42z"/>
  </g>
  <g fill="#17231a">
    <path d="M229 138l17 38-36-16z"/>
    <path d="M299 152l-8 39-24-31z"/>
    <path d="M172 269l32-24-7 39z"/>
    <path d="M341 297l-39 6 30-26z"/>
    <path d="M236 418l15-39 14 39z"/>
  </g>
  <text x="256" y="474" text-anchor="middle" font-family="Jost, Arial, sans-serif" font-size="32" letter-spacing="18" fill="#17231a">REDEMPTION</text>
</svg>
